<svg width="202" height="241" viewBox="0 0 202 241" fill="none" xmlns="http://www.w3.org/2000/svg">
<g opacity="0.3">
<path opacity="0.3" d="M140 49.24C134.532 49.2347 129.289 47.0609 125.422 43.1953C121.554 39.3297 119.378 34.0881 119.37 28.62V0H27.2C20.063 0 13.2184 2.83514 8.17175 7.88174C3.12515 12.9283 0.290039 19.773 0.290039 26.91V189.13C0.300637 196.26 3.14046 203.094 8.18591 208.132C13.2314 213.17 20.0699 216 27.2 216H137.8C144.937 216 151.782 213.165 156.828 208.118C161.875 203.072 164.71 196.227 164.71 189.09V49.24H140Z" fill="#FF3E4C"/>
</g>
<path d="M164.71 49.24H140C134.532 49.2347 129.289 47.0609 125.422 43.1953C121.554 39.3297 119.378 34.0881 119.37 28.62V0L164.71 49.24Z" fill="#FF3E4C"/>
<path d="M185.1 171H60.0599C51.1902 171 44 178.19 44 187.06V224.34C44 233.21 51.1902 240.4 60.0599 240.4H185.1C193.97 240.4 201.16 233.21 201.16 224.34V187.06C201.16 178.19 193.97 171 185.1 171Z" fill="#FF3E4C"/>
<path d="M67 213.37V220.64H59.47V213.37H67Z" fill="white"/>
<path d="M89.3101 190.57V211.11C89.3101 214.26 88.45 216.68 86.73 218.39C85.7754 219.272 84.653 219.952 83.4297 220.39C82.2064 220.828 80.9072 221.015 79.61 220.94C78.1853 221.015 76.76 220.807 75.4161 220.328C74.0723 219.849 72.8365 219.109 71.78 218.15C69.85 216.3 68.89 213.62 68.89 210.15H76.08C76.08 212.963 77.1434 214.37 79.27 214.37C81.11 214.37 82.03 213.29 82.03 211.13V190.59L89.3101 190.57Z" fill="white"/>
<path d="M179.5 191V205.5V220.86H172L163.5 205.5L163.286 220.86L156 220.86V191H163.5L172 208V191H179.5Z" fill="white"/>
<path d="M67.4 154.14H65.1899C60.0899 154.14 56.0267 152.643 53 149.65C49.9733 146.657 48.4633 142.613 48.47 137.52V121.2C48.47 114.96 45.9867 111.84 41.02 111.84V104.18C45.9867 104.18 48.47 101.06 48.47 94.8199V78.4999C48.47 73.3999 49.98 69.3532 53 66.3599C56.02 63.3666 60.0833 61.8732 65.1899 61.8799H67.4V69.5399H65.89C59.89 69.5399 56.89 72.9299 56.89 79.7099V96.4299C56.8167 102.43 54.4833 106.223 49.89 107.81V108.21C54.39 109.69 56.7233 113.383 56.89 119.29V136.29C56.89 143.07 59.89 146.46 65.89 146.46H67.4V154.14Z" fill="#FF3E4C"/>
<path d="M97.59 154.14V146.48H99.1C105.1 146.48 108.1 143.09 108.1 136.31V119.31C108.233 113.397 110.567 109.703 115.1 108.23V107.83C110.527 106.217 108.193 102.423 108.1 96.4499V79.7299C108.1 72.9499 105.1 69.5599 99.1 69.5599H97.59V61.8999H99.8101C104.91 61.8999 108.97 63.3932 111.99 66.3799C115.01 69.3666 116.523 73.4132 116.53 78.5199V94.8399C116.53 101.08 119.013 104.2 123.98 104.2V111.86C119.013 111.86 116.53 114.98 116.53 121.22V137.54C116.53 142.64 115.017 146.683 111.99 149.67C108.963 152.657 104.903 154.153 99.8101 154.16L97.59 154.14Z" fill="#FF3E4C"/>
<path d="M117.298 216.481C116.432 217.862 115.19 218.968 113.718 219.671C111.931 220.509 109.972 220.916 107.998 220.861C105.025 220.978 102.097 220.11 99.6683 218.391C98.5909 217.586 97.7093 216.549 97.0894 215.356C96.4694 214.162 96.1272 212.845 96.0884 211.501H103.838C103.887 212.515 104.319 213.473 105.048 214.181C105.768 214.852 106.724 215.211 107.708 215.181C108.517 215.223 109.311 214.946 109.918 214.411C110.185 214.152 110.395 213.84 110.534 213.496C110.674 213.152 110.74 212.782 110.728 212.411C110.739 212.058 110.678 211.707 110.549 211.379C110.42 211.051 110.226 210.752 109.978 210.501C109.449 209.965 108.821 209.537 108.128 209.241C107.388 208.921 106.368 208.531 105.068 208.071C103.475 207.545 101.918 206.914 100.408 206.181C99.1699 205.538 98.1061 204.605 97.3083 203.461C96.3871 202.072 95.9317 200.426 96.0083 198.761C95.9662 197.11 96.4418 195.487 97.3683 194.121C98.3179 192.786 99.6246 191.746 101.138 191.121C102.884 190.414 104.756 190.074 106.638 190.121C109.5 189.961 112.329 190.802 114.638 192.501C115.62 193.3 116.423 194.296 116.999 195.424C117.574 196.551 117.907 197.787 117.978 199.051H110.108C110.018 198.165 109.634 197.334 109.018 196.691C108.705 196.393 108.334 196.162 107.928 196.012C107.522 195.863 107.09 195.798 106.658 195.821C105.911 195.782 105.176 196.025 104.598 196.501C104.327 196.755 104.115 197.066 103.978 197.412C103.842 197.758 103.784 198.129 103.808 198.501C103.797 199.174 104.052 199.825 104.518 200.311C105.017 200.829 105.615 201.241 106.278 201.521C106.988 201.831 108.008 202.231 109.338 202.711C110.959 203.235 112.537 203.883 114.058 204.651C115.314 205.314 116.394 206.267 117.208 207.431C118.139 208.838 118.601 210.504 118.528 212.191C118.517 213.706 118.091 215.189 117.298 216.481Z" fill="white"/>
<path d="M144.558 192.001C146.844 193.299 148.734 195.193 150.028 197.481C151.382 199.905 152.072 202.644 152.028 205.421C152.083 208.218 151.393 210.979 150.028 213.421C148.73 215.72 146.833 217.624 144.538 218.931C142.201 220.266 139.55 220.956 136.859 220.931C134.167 220.954 131.517 220.264 129.178 218.931C126.884 217.627 124.99 215.722 123.698 213.421C122.33 210.98 121.639 208.218 121.698 205.421C121.646 202.643 122.337 199.902 123.698 197.481C124.997 195.192 126.89 193.299 129.178 192.001C131.517 190.667 134.167 189.977 136.859 190.001C139.557 189.975 142.214 190.665 144.558 192.001ZM131.158 199.101C129.682 200.865 128.932 203.124 129.058 205.421C128.939 207.707 129.69 209.954 131.158 211.711C131.877 212.492 132.758 213.106 133.739 213.51C134.72 213.914 135.778 214.099 136.839 214.051C137.895 214.095 138.949 213.908 139.926 213.504C140.904 213.1 141.781 212.488 142.498 211.711C143.981 209.961 144.739 207.711 144.618 205.421C144.739 203.131 143.989 200.88 142.518 199.121C141.8 198.339 140.919 197.725 139.938 197.32C138.957 196.916 137.899 196.732 136.839 196.781C135.784 196.737 134.732 196.922 133.755 197.322C132.778 197.723 131.899 198.329 131.178 199.101H131.158Z" fill="white"/>
<path d="M81.67 86.1699C85.3317 86.1699 88.3 83.2017 88.3 79.54C88.3 75.8784 85.3317 72.9099 81.67 72.9099C78.0084 72.9099 75.04 75.8784 75.04 79.54C75.04 83.2017 78.0084 86.1699 81.67 86.1699Z" fill="#FF3E4C"/>
<path d="M81.67 114.64C85.3317 114.64 88.3 111.672 88.3 108.01C88.3 104.348 85.3317 101.38 81.67 101.38C78.0084 101.38 75.04 104.348 75.04 108.01C75.04 111.672 78.0084 114.64 81.67 114.64Z" fill="#FF3E4C"/>
<path d="M81.67 143.11C85.3317 143.11 88.3 140.142 88.3 136.48C88.3 132.818 85.3317 129.85 81.67 129.85C78.0084 129.85 75.04 132.818 75.04 136.48C75.04 140.142 78.0084 143.11 81.67 143.11Z" fill="#FF3E4C"/>
</svg>
